<svg width="4000" height="516" viewBox="0 0 4000 516" fill="none" xmlns="http://www.w3.org/2000/svg">
<g filter="url(#filter0_d_523_6)">
<rect width="4000" height="300" fill="#510C76"/>
</g>
<g filter="url(#filter1_d_523_6)">
<path d="M0 267H2588L2521 352H0V267Z" fill="#F6E948"/>
</g>
<g filter="url(#filter2_d_523_6)">
<path d="M126.273 118.568V110.455H164.5V118.568H150.25V157H140.523V118.568H126.273ZM170.795 157V110.455H202.159V118.568H180.636V129.659H200.545V137.773H180.636V148.886H202.25V157H170.795ZM209.983 157V110.455H228.347C231.862 110.455 234.862 111.083 237.347 112.341C239.847 113.583 241.748 115.348 243.051 117.636C244.369 119.909 245.028 122.583 245.028 125.659C245.028 128.75 244.362 131.409 243.028 133.636C241.695 135.848 239.763 137.545 237.233 138.727C234.718 139.909 231.672 140.5 228.097 140.5H215.801V132.591H226.506C228.384 132.591 229.945 132.333 231.188 131.818C232.43 131.303 233.354 130.53 233.96 129.5C234.581 128.47 234.892 127.189 234.892 125.659C234.892 124.114 234.581 122.811 233.96 121.75C233.354 120.689 232.422 119.886 231.165 119.341C229.922 118.78 228.354 118.5 226.46 118.5H219.824V157H209.983ZM235.119 135.818L246.688 157H235.824L224.506 135.818H235.119ZM251.983 110.455H264.119L276.938 141.727H277.483L290.301 110.455H302.438V157H292.892V126.705H292.506L280.46 156.773H273.96L261.915 126.591H261.528V157H251.983V110.455ZM353.318 133.727C353.318 138.803 352.356 143.121 350.432 146.682C348.523 150.242 345.917 152.962 342.614 154.841C339.326 156.705 335.629 157.636 331.523 157.636C327.386 157.636 323.674 156.697 320.386 154.818C317.098 152.939 314.5 150.22 312.591 146.659C310.682 143.098 309.727 138.788 309.727 133.727C309.727 128.652 310.682 124.333 312.591 120.773C314.5 117.212 317.098 114.5 320.386 112.636C323.674 110.758 327.386 109.818 331.523 109.818C335.629 109.818 339.326 110.758 342.614 112.636C345.917 114.5 348.523 117.212 350.432 120.773C352.356 124.333 353.318 128.652 353.318 133.727ZM343.341 133.727C343.341 130.439 342.848 127.667 341.864 125.409C340.894 123.152 339.523 121.439 337.75 120.273C335.977 119.106 333.902 118.523 331.523 118.523C329.144 118.523 327.068 119.106 325.295 120.273C323.523 121.439 322.144 123.152 321.159 125.409C320.189 127.667 319.705 130.439 319.705 133.727C319.705 137.015 320.189 139.788 321.159 142.045C322.144 144.303 323.523 146.015 325.295 147.182C327.068 148.348 329.144 148.932 331.523 148.932C333.902 148.932 335.977 148.348 337.75 147.182C339.523 146.015 340.894 144.303 341.864 142.045C342.848 139.788 343.341 137.015 343.341 133.727ZM391.92 157H375.42V110.455H392.057C396.739 110.455 400.769 111.386 404.148 113.25C407.527 115.098 410.125 117.758 411.943 121.227C413.777 124.697 414.693 128.848 414.693 133.682C414.693 138.53 413.777 142.697 411.943 146.182C410.125 149.667 407.511 152.341 404.102 154.205C400.708 156.068 396.648 157 391.92 157ZM385.261 148.568H391.511C394.42 148.568 396.867 148.053 398.852 147.023C400.852 145.977 402.352 144.364 403.352 142.182C404.367 139.985 404.875 137.152 404.875 133.682C404.875 130.242 404.367 127.432 403.352 125.25C402.352 123.068 400.86 121.462 398.875 120.432C396.89 119.402 394.443 118.886 391.534 118.886H385.261V148.568ZM421.983 157V110.455H453.347V118.568H431.824V129.659H451.733V137.773H431.824V148.886H453.438V157H421.983ZM484.006 157H473.46L489.528 110.455H502.21L518.256 157H507.71L496.051 121.091H495.688L484.006 157ZM483.347 138.705H508.256V146.386H483.347V138.705ZM540.358 157H523.858V110.455H540.494C545.176 110.455 549.206 111.386 552.585 113.25C555.964 115.098 558.563 117.758 560.381 121.227C562.214 124.697 563.131 128.848 563.131 133.682C563.131 138.53 562.214 142.697 560.381 146.182C558.563 149.667 555.949 152.341 552.54 154.205C549.146 156.068 545.085 157 540.358 157ZM533.699 148.568H539.949C542.858 148.568 545.305 148.053 547.29 147.023C549.29 145.977 550.79 144.364 551.79 142.182C552.805 139.985 553.312 137.152 553.312 133.682C553.312 130.242 552.805 127.432 551.79 125.25C550.79 123.068 549.297 121.462 547.312 120.432C545.328 119.402 542.881 118.886 539.972 118.886H533.699V148.568ZM570.42 157V110.455H601.784V118.568H580.261V129.659H600.17V137.773H580.261V148.886H601.875V157H570.42ZM634.858 123.841C634.676 122.008 633.896 120.583 632.517 119.568C631.138 118.553 629.267 118.045 626.903 118.045C625.297 118.045 623.941 118.273 622.835 118.727C621.729 119.167 620.881 119.78 620.29 120.568C619.714 121.356 619.426 122.25 619.426 123.25C619.396 124.083 619.57 124.811 619.949 125.432C620.343 126.053 620.881 126.591 621.562 127.045C622.244 127.485 623.032 127.871 623.926 128.205C624.82 128.523 625.775 128.795 626.79 129.023L630.972 130.023C633.002 130.477 634.866 131.083 636.562 131.841C638.259 132.598 639.729 133.53 640.972 134.636C642.214 135.742 643.176 137.045 643.858 138.545C644.555 140.045 644.911 141.765 644.926 143.705C644.911 146.553 644.184 149.023 642.744 151.114C641.32 153.189 639.259 154.803 636.562 155.955C633.881 157.091 630.646 157.659 626.858 157.659C623.1 157.659 619.828 157.083 617.04 155.932C614.267 154.78 612.1 153.076 610.54 150.818C608.994 148.545 608.184 145.735 608.108 142.386H617.631C617.737 143.947 618.184 145.25 618.972 146.295C619.775 147.326 620.843 148.106 622.176 148.636C623.525 149.152 625.047 149.409 626.744 149.409C628.411 149.409 629.858 149.167 631.085 148.682C632.328 148.197 633.29 147.523 633.972 146.659C634.653 145.795 634.994 144.803 634.994 143.682C634.994 142.636 634.684 141.758 634.062 141.045C633.456 140.333 632.563 139.727 631.381 139.227C630.214 138.727 628.782 138.273 627.085 137.864L622.017 136.591C618.093 135.636 614.994 134.144 612.722 132.114C610.449 130.083 609.32 127.348 609.335 123.909C609.32 121.091 610.07 118.629 611.585 116.523C613.116 114.417 615.214 112.773 617.881 111.591C620.547 110.409 623.578 109.818 626.972 109.818C630.426 109.818 633.441 110.409 636.017 111.591C638.608 112.773 640.623 114.417 642.062 116.523C643.502 118.629 644.244 121.068 644.29 123.841H634.858ZM658.506 157H647.96L664.028 110.455H676.71L692.756 157H682.21L670.551 121.091H670.188L658.506 157ZM657.847 138.705H682.756V146.386H657.847V138.705ZM663.847 105.864L658.483 105.795C658.483 102.902 659.195 100.682 660.619 99.1364C662.044 97.5909 663.794 96.8106 665.869 96.7955C666.93 96.7955 667.839 96.9697 668.597 97.3182C669.354 97.6515 670.044 98.0455 670.665 98.5C671.286 98.9545 671.877 99.3561 672.438 99.7045C672.998 100.038 673.604 100.205 674.256 100.205C675.134 100.189 675.801 99.8636 676.256 99.2273C676.725 98.5758 676.96 97.7273 676.96 96.6818L682.256 96.8409C682.225 99.7045 681.498 101.917 680.074 103.477C678.65 105.023 676.907 105.803 674.847 105.818C673.725 105.833 672.778 105.667 672.006 105.318C671.248 104.97 670.581 104.576 670.006 104.136C669.43 103.682 668.869 103.28 668.324 102.932C667.778 102.583 667.165 102.409 666.483 102.409C665.695 102.409 665.059 102.72 664.574 103.341C664.089 103.962 663.847 104.803 663.847 105.864ZM738.943 133.727C738.943 138.803 737.981 143.121 736.057 146.682C734.148 150.242 731.542 152.962 728.239 154.841C724.951 156.705 721.254 157.636 717.148 157.636C713.011 157.636 709.299 156.697 706.011 154.818C702.723 152.939 700.125 150.22 698.216 146.659C696.307 143.098 695.352 138.788 695.352 133.727C695.352 128.652 696.307 124.333 698.216 120.773C700.125 117.212 702.723 114.5 706.011 112.636C709.299 110.758 713.011 109.818 717.148 109.818C721.254 109.818 724.951 110.758 728.239 112.636C731.542 114.5 734.148 117.212 736.057 120.773C737.981 124.333 738.943 128.652 738.943 133.727ZM728.966 133.727C728.966 130.439 728.473 127.667 727.489 125.409C726.519 123.152 725.148 121.439 723.375 120.273C721.602 119.106 719.527 118.523 717.148 118.523C714.769 118.523 712.693 119.106 710.92 120.273C709.148 121.439 707.769 123.152 706.784 125.409C705.814 127.667 705.33 130.439 705.33 133.727C705.33 137.015 705.814 139.788 706.784 142.045C707.769 144.303 709.148 146.015 710.92 147.182C712.693 148.348 714.769 148.932 717.148 148.932C719.527 148.932 721.602 148.348 723.375 147.182C725.148 146.015 726.519 144.303 727.489 142.045C728.473 139.788 728.966 137.015 728.966 133.727ZM777.545 157H761.045V110.455H777.682C782.364 110.455 786.394 111.386 789.773 113.25C793.152 115.098 795.75 117.758 797.568 121.227C799.402 124.697 800.318 128.848 800.318 133.682C800.318 138.53 799.402 142.697 797.568 146.182C795.75 149.667 793.136 152.341 789.727 154.205C786.333 156.068 782.273 157 777.545 157ZM770.886 148.568H777.136C780.045 148.568 782.492 148.053 784.477 147.023C786.477 145.977 787.977 144.364 788.977 142.182C789.992 139.985 790.5 137.152 790.5 133.682C790.5 130.242 789.992 127.432 788.977 125.25C787.977 123.068 786.485 121.462 784.5 120.432C782.515 119.402 780.068 118.886 777.159 118.886H770.886V148.568ZM850.381 133.727C850.381 138.803 849.419 143.121 847.494 146.682C845.585 150.242 842.979 152.962 839.676 154.841C836.388 156.705 832.691 157.636 828.585 157.636C824.449 157.636 820.737 156.697 817.449 154.818C814.161 152.939 811.563 150.22 809.653 146.659C807.744 143.098 806.79 138.788 806.79 133.727C806.79 128.652 807.744 124.333 809.653 120.773C811.563 117.212 814.161 114.5 817.449 112.636C820.737 110.758 824.449 109.818 828.585 109.818C832.691 109.818 836.388 110.758 839.676 112.636C842.979 114.5 845.585 117.212 847.494 120.773C849.419 124.333 850.381 128.652 850.381 133.727ZM840.403 133.727C840.403 130.439 839.911 127.667 838.926 125.409C837.956 123.152 836.585 121.439 834.812 120.273C833.04 119.106 830.964 118.523 828.585 118.523C826.206 118.523 824.131 119.106 822.358 120.273C820.585 121.439 819.206 123.152 818.222 125.409C817.252 127.667 816.767 130.439 816.767 133.727C816.767 137.015 817.252 139.788 818.222 142.045C819.206 144.303 820.585 146.015 822.358 147.182C824.131 148.348 826.206 148.932 828.585 148.932C830.964 148.932 833.04 148.348 834.812 147.182C836.585 146.015 837.956 144.303 838.926 142.045C839.911 139.788 840.403 137.015 840.403 133.727ZM913.551 126.75H903.597C903.415 125.462 903.044 124.318 902.483 123.318C901.922 122.303 901.203 121.439 900.324 120.727C899.445 120.015 898.43 119.47 897.278 119.091C896.142 118.712 894.907 118.523 893.574 118.523C891.165 118.523 889.066 119.121 887.278 120.318C885.491 121.5 884.104 123.227 883.119 125.5C882.134 127.758 881.642 130.5 881.642 133.727C881.642 137.045 882.134 139.833 883.119 142.091C884.119 144.348 885.513 146.053 887.301 147.205C889.089 148.356 891.157 148.932 893.506 148.932C894.824 148.932 896.044 148.758 897.165 148.409C898.301 148.061 899.309 147.553 900.188 146.886C901.066 146.205 901.794 145.379 902.369 144.409C902.96 143.439 903.369 142.333 903.597 141.091L913.551 141.136C913.294 143.273 912.65 145.333 911.619 147.318C910.604 149.288 909.233 151.053 907.506 152.614C905.794 154.159 903.748 155.386 901.369 156.295C899.006 157.189 896.331 157.636 893.347 157.636C889.195 157.636 885.483 156.697 882.21 154.818C878.953 152.939 876.377 150.22 874.483 146.659C872.604 143.098 871.665 138.788 871.665 133.727C871.665 128.652 872.619 124.333 874.528 120.773C876.438 117.212 879.028 114.5 882.301 112.636C885.574 110.758 889.256 109.818 893.347 109.818C896.044 109.818 898.544 110.197 900.847 110.955C903.165 111.712 905.218 112.818 907.006 114.273C908.794 115.712 910.248 117.477 911.369 119.568C912.506 121.659 913.233 124.053 913.551 126.75ZM963.381 133.727C963.381 138.803 962.419 143.121 960.494 146.682C958.585 150.242 955.979 152.962 952.676 154.841C949.388 156.705 945.691 157.636 941.585 157.636C937.449 157.636 933.737 156.697 930.449 154.818C927.161 152.939 924.563 150.22 922.653 146.659C920.744 143.098 919.79 138.788 919.79 133.727C919.79 128.652 920.744 124.333 922.653 120.773C924.563 117.212 927.161 114.5 930.449 112.636C933.737 110.758 937.449 109.818 941.585 109.818C945.691 109.818 949.388 110.758 952.676 112.636C955.979 114.5 958.585 117.212 960.494 120.773C962.419 124.333 963.381 128.652 963.381 133.727ZM953.403 133.727C953.403 130.439 952.911 127.667 951.926 125.409C950.956 123.152 949.585 121.439 947.812 120.273C946.04 119.106 943.964 118.523 941.585 118.523C939.206 118.523 937.131 119.106 935.358 120.273C933.585 121.439 932.206 123.152 931.222 125.409C930.252 127.667 929.767 130.439 929.767 133.727C929.767 137.015 930.252 139.788 931.222 142.045C932.206 144.303 933.585 146.015 935.358 147.182C937.131 148.348 939.206 148.932 941.585 148.932C943.964 148.932 946.04 148.348 947.812 147.182C949.585 146.015 950.956 144.303 951.926 142.045C952.911 139.788 953.403 137.015 953.403 133.727ZM1013.44 133.727C1013.44 138.803 1012.48 143.121 1010.56 146.682C1008.65 150.242 1006.04 152.962 1002.74 154.841C999.451 156.705 995.754 157.636 991.648 157.636C987.511 157.636 983.799 156.697 980.511 154.818C977.223 152.939 974.625 150.22 972.716 146.659C970.807 143.098 969.852 138.788 969.852 133.727C969.852 128.652 970.807 124.333 972.716 120.773C974.625 117.212 977.223 114.5 980.511 112.636C983.799 110.758 987.511 109.818 991.648 109.818C995.754 109.818 999.451 110.758 1002.74 112.636C1006.04 114.5 1008.65 117.212 1010.56 120.773C1012.48 124.333 1013.44 128.652 1013.44 133.727ZM1003.47 133.727C1003.47 130.439 1002.97 127.667 1001.99 125.409C1001.02 123.152 999.648 121.439 997.875 120.273C996.102 119.106 994.027 118.523 991.648 118.523C989.269 118.523 987.193 119.106 985.42 120.273C983.648 121.439 982.269 123.152 981.284 125.409C980.314 127.667 979.83 130.439 979.83 133.727C979.83 137.015 980.314 139.788 981.284 142.045C982.269 144.303 983.648 146.015 985.42 147.182C987.193 148.348 989.269 148.932 991.648 148.932C994.027 148.932 996.102 148.348 997.875 147.182C999.648 146.015 1001.02 144.303 1001.99 142.045C1002.97 139.788 1003.47 137.015 1003.47 133.727ZM1020.73 157V110.455H1039.1C1042.63 110.455 1045.63 111.129 1048.12 112.477C1050.6 113.811 1052.5 115.667 1053.8 118.045C1055.12 120.409 1055.78 123.136 1055.78 126.227C1055.78 129.318 1055.11 132.045 1053.78 134.409C1052.45 136.773 1050.51 138.614 1047.98 139.932C1045.47 141.25 1042.42 141.909 1038.85 141.909H1027.14V134.023H1037.26C1039.15 134.023 1040.71 133.697 1041.94 133.045C1043.18 132.379 1044.1 131.462 1044.71 130.295C1045.33 129.114 1045.64 127.758 1045.64 126.227C1045.64 124.682 1045.33 123.333 1044.71 122.182C1044.1 121.015 1043.18 120.114 1041.94 119.477C1040.7 118.826 1039.12 118.5 1037.21 118.5H1030.57V157H1020.73ZM1062.17 157V110.455H1093.53V118.568H1072.01V129.659H1091.92V137.773H1072.01V148.886H1093.62V157H1062.17ZM1101.36 157V110.455H1119.72C1123.24 110.455 1126.24 111.083 1128.72 112.341C1131.22 113.583 1133.12 115.348 1134.43 117.636C1135.74 119.909 1136.4 122.583 1136.4 125.659C1136.4 128.75 1135.74 131.409 1134.4 133.636C1133.07 135.848 1131.14 137.545 1128.61 138.727C1126.09 139.909 1123.05 140.5 1119.47 140.5H1107.18V132.591H1117.88C1119.76 132.591 1121.32 132.333 1122.56 131.818C1123.8 131.303 1124.73 130.53 1125.34 129.5C1125.96 128.47 1126.27 127.189 1126.27 125.659C1126.27 124.114 1125.96 122.811 1125.34 121.75C1124.73 120.689 1123.8 119.886 1122.54 119.341C1121.3 118.78 1119.73 118.5 1117.84 118.5H1111.2V157H1101.36ZM1126.49 135.818L1138.06 157H1127.2L1115.88 135.818H1126.49ZM1151.38 157H1140.84L1156.9 110.455H1169.59L1185.63 157H1175.09L1163.43 121.091H1163.06L1151.38 157ZM1150.72 138.705H1175.63V146.386H1150.72V138.705ZM1207.73 157H1191.23V110.455H1207.87C1212.55 110.455 1216.58 111.386 1219.96 113.25C1223.34 115.098 1225.94 117.758 1227.76 121.227C1229.59 124.697 1230.51 128.848 1230.51 133.682C1230.51 138.53 1229.59 142.697 1227.76 146.182C1225.94 149.667 1223.32 152.341 1219.91 154.205C1216.52 156.068 1212.46 157 1207.73 157ZM1201.07 148.568H1207.32C1210.23 148.568 1212.68 148.053 1214.66 147.023C1216.66 145.977 1218.16 144.364 1219.16 142.182C1220.18 139.985 1220.69 137.152 1220.69 133.682C1220.69 130.242 1220.18 127.432 1219.16 125.25C1218.16 123.068 1216.67 121.462 1214.69 120.432C1212.7 119.402 1210.26 118.886 1207.35 118.886H1201.07V148.568ZM1280.57 133.727C1280.57 138.803 1279.61 143.121 1277.68 146.682C1275.77 150.242 1273.17 152.962 1269.86 154.841C1266.58 156.705 1262.88 157.636 1258.77 157.636C1254.64 157.636 1250.92 156.697 1247.64 154.818C1244.35 152.939 1241.75 150.22 1239.84 146.659C1237.93 143.098 1236.98 138.788 1236.98 133.727C1236.98 128.652 1237.93 124.333 1239.84 120.773C1241.75 117.212 1244.35 114.5 1247.64 112.636C1250.92 110.758 1254.64 109.818 1258.77 109.818C1262.88 109.818 1266.58 110.758 1269.86 112.636C1273.17 114.5 1275.77 117.212 1277.68 120.773C1279.61 124.333 1280.57 128.652 1280.57 133.727ZM1270.59 133.727C1270.59 130.439 1270.1 127.667 1269.11 125.409C1268.14 123.152 1266.77 121.439 1265 120.273C1263.23 119.106 1261.15 118.523 1258.77 118.523C1256.39 118.523 1254.32 119.106 1252.55 120.273C1250.77 121.439 1249.39 123.152 1248.41 125.409C1247.44 127.667 1246.95 130.439 1246.95 133.727C1246.95 137.015 1247.44 139.788 1248.41 142.045C1249.39 144.303 1250.77 146.015 1252.55 147.182C1254.32 148.348 1256.39 148.932 1258.77 148.932C1261.15 148.932 1263.23 148.348 1265 147.182C1266.77 146.015 1268.14 144.303 1269.11 142.045C1270.1 139.788 1270.59 137.015 1270.59 133.727Z" fill="white"/>
</g>
<g filter="url(#filter3_d_523_6)">
<g filter="url(#filter4_d_523_6)">
<path d="M3776.27 172.536L3156.5 219.245L3156.5 454.204L3776.27 406.08L3776.27 172.536Z" fill="#F6E948"/>
</g>
<g filter="url(#filter5_d_523_6)">
<path d="M3234.32 310.093C3243.65 301.868 3252.67 293.082 3261.52 284.154C3259.88 291.5 3258.24 298.846 3256.6 306.156C3254.95 313.853 3253.15 321.726 3251.51 329.423C3250.19 335.328 3247.42 342.498 3248.39 348.754C3249.54 355.361 3258.04 360.036 3263.49 361.477C3269.73 363.093 3273.34 355.572 3276.59 350.933C3283.8 340.74 3291.01 330.337 3297.58 319.617C3295.62 329.107 3293.97 338.772 3292.82 348.613C3292.01 355.607 3290.37 364.007 3293.46 370.615C3295.1 374.024 3297.87 376.519 3300.83 378.488C3304.44 380.983 3309.36 384.392 3313.94 384.216C3320.15 383.865 3323.76 375.816 3325.59 370.263C3332.16 350.933 3338.05 331.251 3343.46 311.569C3345.75 302.993 3347.71 294.206 3349.87 285.42V285.595C3351.03 288.442 3357.56 292.59 3360.36 292.203C3361.68 292.027 3362.49 291.5 3363.49 290.762C3362.33 294.171 3351.83 330.126 3344.78 353.955C3343.78 357.716 3343.46 361.652 3345.94 365.062C3348.39 368.295 3352.15 370.791 3355.6 372.583C3358.4 374.024 3361.33 375.816 3364.45 375.641C3369.86 375.641 3376.11 371.88 3381.16 369.912C3387.38 367.416 3395.59 362.566 3401.99 359.895C3405.28 358.454 3408.72 356.837 3412.01 355.256C3414.81 353.815 3417.58 352.936 3419.22 349.878C3419.86 348.613 3413.65 345.59 3412.65 345.415C3404.79 345.415 3396.91 348.297 3389.37 350.968C3382.96 353.112 3383.32 353.463 3376.91 355.994C3370.7 358.314 3374.63 357.083 3368.38 359.403C3366.09 360.282 3363.78 361.196 3361.49 362.074C3361.81 360.809 3366.74 342.919 3371.82 323.94C3372.82 323.589 3373.79 323.237 3374.95 322.851C3379.55 321.41 3384.12 319.793 3388.73 318.563C3393.81 317.122 3400.22 316.77 3404.31 313.361V313.01C3404.31 312.658 3404.31 312.307 3404.15 311.92C3403.99 310.303 3400.06 308.687 3398.9 308.335C3391.53 306.191 3383.99 307.984 3376.75 309.952C3376.27 310.128 3375.78 310.303 3375.43 310.303C3380.03 293.468 3383.8 278.988 3383.96 278.461C3387.73 277.195 3384.93 277.934 3388.73 276.844C3396.1 274.876 3398.42 274.349 3405.95 273.259C3409.72 272.732 3413.49 271.994 3417.09 271.467C3419.38 271.115 3423.98 271.467 3424.63 268.409C3424.95 266.441 3419.22 263.769 3417.9 263.383C3409.53 260.712 3405.92 260.501 3397.23 261.766C3389.18 263.031 3371.15 266.968 3360.49 272.134C3358.04 273.4 3353.76 275.719 3351.32 278.566C3351.48 278.039 3351.64 277.301 3351.8 276.774C3353.12 271.221 3353.92 265.492 3354.92 259.763C3355.89 253.682 3356.72 247.778 3356.4 241.522C3356.4 240.819 3352.8 238.464 3352.47 239.202C3347.71 246.196 3345.58 255.862 3342.82 264.086C3339.85 272.662 3337.73 281.624 3334.93 290.41C3329.52 307.949 3324.43 325.662 3318.7 343.025C3316.09 350.898 3313.94 359.508 3310.17 366.643C3309.17 368.436 3308.04 370.404 3306.56 372.021C3306.08 366.292 3307.05 360.211 3307.56 354.834C3308.4 345.872 3309.69 336.944 3311.33 327.982C3314.93 307.562 3320.18 287.528 3324.79 267.319C3325.11 265.878 3318.73 262.118 3318.06 263.031C3317.74 263.559 3317.57 263.945 3317.25 264.472H3316.93C3312.84 266.441 3310.88 270.201 3308.24 273.962C3305.6 277.723 3303.15 281.835 3300.7 285.771C3295.62 293.82 3290.21 301.693 3284.96 309.741C3279.87 317.438 3274.79 325.311 3269.54 332.832C3267.9 335.152 3266.25 337.472 3264.61 339.826C3266.25 331.778 3267.9 323.729 3269.7 315.47C3273.14 298.986 3276.43 282.362 3279.52 265.878C3280 263.383 3269.18 256.74 3267.7 258.357C3253.6 273.575 3239.5 288.794 3226.56 305.242C3225.91 305.77 3232.96 311.323 3234.25 310.093" fill="#510C76"/>
</g>
<g filter="url(#filter6_d_523_6)">
<path d="M3644.04 336.242L3643.88 314.206L3655.21 336.242L3674.21 370.229H3702.93V252.84H3675.21L3675.37 287.002V308.863L3664.07 287.002L3645.04 252.84H3616.19V370.229H3644.04V336.242Z" fill="#510C76"/>
</g>
<g filter="url(#filter7_d_523_6)">
<path d="M3606.99 342.323H3560.91V324.96H3591.6V298.284H3560.91V280.57H3595.36L3610.27 252.84H3528.78V370.229H3606.99V342.323Z" fill="#510C76"/>
</g>
<g filter="url(#filter8_d_523_6)">
<path d="M3440.76 358.419C3445.68 363.269 3451.09 366.995 3457.47 369.525C3463.68 372.021 3470.57 373.286 3477.98 373.286C3485.38 373.286 3492.4 372.407 3498.64 370.439C3504.89 368.471 3511.59 365.589 3518.64 361.301V299.724H3490.11L3477.33 323.343H3490.11V343.376C3486.02 344.817 3482.06 345.52 3478.46 345.52C3465.68 345.52 3459.27 334.238 3459.27 311.674C3459.27 299.338 3461.39 290.727 3465.48 285.736C3469.57 280.71 3474.82 278.215 3480.9 278.215C3486.99 278.215 3493.36 279.656 3499.45 282.151L3512.91 257.267C3502.25 252.242 3491.11 249.922 3479.46 249.922C3472.08 249.922 3465.19 251.187 3458.79 253.683C3452.38 256.178 3446.65 259.763 3441.56 264.613C3436.47 269.463 3432.55 275.895 3429.58 283.944C3426.62 291.992 3425.17 301.13 3425.17 311.499C3425.17 321.867 3426.49 331.005 3429.26 339.053C3432.06 347.102 3435.83 353.569 3440.76 358.384" fill="#510C76"/>
</g>
</g>
<defs>
<filter id="filter0_d_523_6" x="-4" y="0" width="4008" height="308" filterUnits="userSpaceOnUse" color-interpolation-filters="sRGB">
<feFlood flood-opacity="0" result="BackgroundImageFix"/>
<feColorMatrix in="SourceAlpha" type="matrix" values="0 0 0 0 0 0 0 0 0 0 0 0 0 0 0 0 0 0 127 0" result="hardAlpha"/>
<feOffset dy="4"/>
<feGaussianBlur stdDeviation="2"/>
<feComposite in2="hardAlpha" operator="out"/>
<feColorMatrix type="matrix" values="0 0 0 0 0 0 0 0 0 0 0 0 0 0 0 0 0 0 0.25 0"/>
<feBlend mode="normal" in2="BackgroundImageFix" result="effect1_dropShadow_523_6"/>
<feBlend mode="normal" in="SourceGraphic" in2="effect1_dropShadow_523_6" result="shape"/>
</filter>
<filter id="filter1_d_523_6" x="-4" y="267" width="2596" height="93" filterUnits="userSpaceOnUse" color-interpolation-filters="sRGB">
<feFlood flood-opacity="0" result="BackgroundImageFix"/>
<feColorMatrix in="SourceAlpha" type="matrix" values="0 0 0 0 0 0 0 0 0 0 0 0 0 0 0 0 0 0 127 0" result="hardAlpha"/>
<feOffset dy="4"/>
<feGaussianBlur stdDeviation="2"/>
<feComposite in2="hardAlpha" operator="out"/>
<feColorMatrix type="matrix" values="0 0 0 0 0 0 0 0 0 0 0 0 0 0 0 0 0 0 0.25 0"/>
<feBlend mode="normal" in2="BackgroundImageFix" result="effect1_dropShadow_523_6"/>
<feBlend mode="normal" in="SourceGraphic" in2="effect1_dropShadow_523_6" result="shape"/>
</filter>
<filter id="filter2_d_523_6" x="122.273" y="96.6816" width="1162.3" height="68.9775" filterUnits="userSpaceOnUse" color-interpolation-filters="sRGB">
<feFlood flood-opacity="0" result="BackgroundImageFix"/>
<feColorMatrix in="SourceAlpha" type="matrix" values="0 0 0 0 0 0 0 0 0 0 0 0 0 0 0 0 0 0 127 0" result="hardAlpha"/>
<feOffset dy="4"/>
<feGaussianBlur stdDeviation="2"/>
<feComposite in2="hardAlpha" operator="out"/>
<feColorMatrix type="matrix" values="0 0 0 0 0 0 0 0 0 0 0 0 0 0 0 0 0 0 0.25 0"/>
<feBlend mode="normal" in2="BackgroundImageFix" result="effect1_dropShadow_523_6"/>
<feBlend mode="normal" in="SourceGraphic" in2="effect1_dropShadow_523_6" result="shape"/>
</filter>
<filter id="filter3_d_523_6" x="3084" y="147" width="772" height="358.482" filterUnits="userSpaceOnUse" color-interpolation-filters="sRGB">
<feFlood flood-opacity="0" result="BackgroundImageFix"/>
<feColorMatrix in="SourceAlpha" type="matrix" values="0 0 0 0 0 0 0 0 0 0 0 0 0 0 0 0 0 0 127 0" result="hardAlpha"/>
<feOffset dy="4"/>
<feGaussianBlur stdDeviation="2"/>
<feComposite in2="hardAlpha" operator="out"/>
<feColorMatrix type="matrix" values="0 0 0 0 0 0 0 0 0 0 0 0 0 0 0 0 0 0 0.25 0"/>
<feBlend mode="normal" in2="BackgroundImageFix" result="effect1_dropShadow_523_6"/>
<feBlend mode="normal" in="SourceGraphic" in2="effect1_dropShadow_523_6" result="shape"/>
</filter>
<filter id="filter4_d_523_6" x="3138" y="151.036" width="702.772" height="364.668" filterUnits="userSpaceOnUse" color-interpolation-filters="sRGB">
<feFlood flood-opacity="0" result="BackgroundImageFix"/>
<feColorMatrix in="SourceAlpha" type="matrix" values="0 0 0 0 0 0 0 0 0 0 0 0 0 0 0 0 0 0 127 0" result="hardAlpha"/>
<feOffset dx="23" dy="20"/>
<feGaussianBlur stdDeviation="20.75"/>
<feComposite in2="hardAlpha" operator="out"/>
<feColorMatrix type="matrix" values="0 0 0 0 0 0 0 0 0 0 0 0 0 0 0 0 0 0 0.47 0"/>
<feBlend mode="normal" in2="BackgroundImageFix" result="effect1_dropShadow_523_6"/>
<feBlend mode="normal" in="SourceGraphic" in2="effect1_dropShadow_523_6" result="shape"/>
</filter>
<filter id="filter5_d_523_6" x="3222.51" y="239.061" width="206.124" height="153.162" filterUnits="userSpaceOnUse" color-interpolation-filters="sRGB">
<feFlood flood-opacity="0" result="BackgroundImageFix"/>
<feColorMatrix in="SourceAlpha" type="matrix" values="0 0 0 0 0 0 0 0 0 0 0 0 0 0 0 0 0 0 127 0" result="hardAlpha"/>
<feOffset dy="4"/>
<feGaussianBlur stdDeviation="2"/>
<feComposite in2="hardAlpha" operator="out"/>
<feColorMatrix type="matrix" values="0 0 0 0 0 0 0 0 0 0 0 0 0 0 0 0 0 0 0.25 0"/>
<feBlend mode="normal" in2="BackgroundImageFix" result="effect1_dropShadow_523_6"/>
<feBlend mode="normal" in="SourceGraphic" in2="effect1_dropShadow_523_6" result="shape"/>
</filter>
<filter id="filter6_d_523_6" x="3612.19" y="252.84" width="94.7358" height="125.389" filterUnits="userSpaceOnUse" color-interpolation-filters="sRGB">
<feFlood flood-opacity="0" result="BackgroundImageFix"/>
<feColorMatrix in="SourceAlpha" type="matrix" values="0 0 0 0 0 0 0 0 0 0 0 0 0 0 0 0 0 0 127 0" result="hardAlpha"/>
<feOffset dy="4"/>
<feGaussianBlur stdDeviation="2"/>
<feComposite in2="hardAlpha" operator="out"/>
<feColorMatrix type="matrix" values="0 0 0 0 0 0 0 0 0 0 0 0 0 0 0 0 0 0 0.25 0"/>
<feBlend mode="normal" in2="BackgroundImageFix" result="effect1_dropShadow_523_6"/>
<feBlend mode="normal" in="SourceGraphic" in2="effect1_dropShadow_523_6" result="shape"/>
</filter>
<filter id="filter7_d_523_6" x="3524.78" y="252.84" width="89.488" height="125.389" filterUnits="userSpaceOnUse" color-interpolation-filters="sRGB">
<feFlood flood-opacity="0" result="BackgroundImageFix"/>
<feColorMatrix in="SourceAlpha" type="matrix" values="0 0 0 0 0 0 0 0 0 0 0 0 0 0 0 0 0 0 127 0" result="hardAlpha"/>
<feOffset dy="4"/>
<feGaussianBlur stdDeviation="2"/>
<feComposite in2="hardAlpha" operator="out"/>
<feColorMatrix type="matrix" values="0 0 0 0 0 0 0 0 0 0 0 0 0 0 0 0 0 0 0.25 0"/>
<feBlend mode="normal" in2="BackgroundImageFix" result="effect1_dropShadow_523_6"/>
<feBlend mode="normal" in="SourceGraphic" in2="effect1_dropShadow_523_6" result="shape"/>
</filter>
<filter id="filter8_d_523_6" x="3421.17" y="249.922" width="101.465" height="131.364" filterUnits="userSpaceOnUse" color-interpolation-filters="sRGB">
<feFlood flood-opacity="0" result="BackgroundImageFix"/>
<feColorMatrix in="SourceAlpha" type="matrix" values="0 0 0 0 0 0 0 0 0 0 0 0 0 0 0 0 0 0 127 0" result="hardAlpha"/>
<feOffset dy="4"/>
<feGaussianBlur stdDeviation="2"/>
<feComposite in2="hardAlpha" operator="out"/>
<feColorMatrix type="matrix" values="0 0 0 0 0 0 0 0 0 0 0 0 0 0 0 0 0 0 0.25 0"/>
<feBlend mode="normal" in2="BackgroundImageFix" result="effect1_dropShadow_523_6"/>
<feBlend mode="normal" in="SourceGraphic" in2="effect1_dropShadow_523_6" result="shape"/>
</filter>
</defs>
</svg>
